<?xml version="1.0" encoding="utf-8"?>
<!-- Generator: Adobe Illustrator 25.4.1, SVG Export Plug-In . SVG Version: 6.00 Build 0)  -->
<svg version="1.1" id="Layer_1" xmlns="http://www.w3.org/2000/svg" xmlns:xlink="http://www.w3.org/1999/xlink" x="0px" y="0px"
	 viewBox="0 0 177 232" style="enable-background:new 0 0 177 232;" xml:space="preserve">
<style type="text/css">
	.st0{fill:#FFFFFF;}
	.st1{fill:#F3F3F5;}
</style>
<g>
	<path d="M10.9,118.9c0-30.9,0.1-61.8-0.1-92.7c-0.1-7.7,5.2-13.7,13.7-13.6c29.7,0.1,59.5,0.1,89.2,0c2.6,0,4.6,0.8,6.5,2.6
		c15.7,15.8,31.5,31.6,47.3,47.4c1.7,1.7,2.1,3.7,2.1,5.9c0,21.3,0,42.6,0,64c0,26.3-0.2,52.6,0.1,79c0.1,9.5-6.9,14.1-14.1,14
		c-43.7-0.2-87.5-0.1-131.2-0.1c-8.4,0-13.4-4.9-13.4-13.3C10.9,181,10.9,150,10.9,118.9z"/>
	<path class="st0" d="M21.7,119.1c0-30.7,0-61.5,0-92.2c0-3.4,0-3.4,3.5-3.4c27.4,0,54.8,0,82.2-0.1c2.3,0,2.7,0.7,2.6,2.8
		c-0.1,11.1-0.1,22.2,0,33.2c0,8,5.1,13.1,13.1,13.1c11.2,0,22.3,0,33.5,0c1.7,0,2.2,0.4,2.2,2.2c0,45.7-0.1,91.5,0,137.2
		c0,2.2-0.7,2.9-2.9,2.9c-43.8,0-87.6,0-131.5,0c-2.4,0-2.9-1-2.9-3.1C21.7,180.7,21.7,149.9,21.7,119.1z"/>
	<path class="st1" d="M120.7,31.5c10.1,10.1,20,19.9,29.9,29.8c-0.2,0.5-0.6,0.3-1,0.3c-8.8,0-17.6,0-26.4,0c-1.4,0-2.5-0.2-2.5-1.9
		C120.7,50.3,120.7,41,120.7,31.5z"/>
	<path d="M53.9,74.9c-8.6-11.4-8.8-21.3-0.6-28.8c7.1-6.4,18.1-6.4,25,0c8.3,7.7,8.2,17.6-0.5,28.8c1.7,0.6,3.5,1,5.1,1.8
		c6.9,3.6,11,9.4,11.5,17.2c0.3,5.4,0.2,10.8,0.1,16.2c0,3.3-2.2,5.5-5.5,5.5c-15.4,0.1-30.8,0.1-46.2,0c-3.4,0-5.5-2-5.5-5.5
		c-0.1-5.5-0.2-11,0.1-16.5c0.5-8.6,6-15.4,14.2-18.1C52.3,75.3,53.1,75.1,53.9,74.9z"/>
	<path d="M90.4,185.9c15.2,0,30.5,0,45.7,0c1,0,2,0,3,0.1c2.4,0.4,4.2,2.7,4.3,5.2c0.1,2.4-1.6,4.6-3.9,5.2c-1,0.2-2,0.4-3,0.4
		c-30.9,0-61.8,0-92.7,0c-0.9,0-1.8-0.1-2.7-0.3c-2.5-0.7-4-2.9-3.9-5.4c0.1-2.5,1.9-4.6,4.4-5c0.9-0.2,1.8-0.1,2.7-0.1
		C59.7,185.9,75.1,185.9,90.4,185.9z"/>
	<path d="M90.5,169.7c-15.3,0-30.6,0-46,0c-0.9,0-1.8,0-2.7-0.1c-2.7-0.4-4.7-2.6-4.6-5.4c0-2.6,2.1-4.9,4.8-5.2c0.5-0.1,1,0,1.5,0
		c31.2,0,62.4,0,93.7,0c1.4,0,2.8,0.1,4,1.1c1.8,1.4,2.6,3.3,2,5.5c-0.6,2.3-2,3.8-4.5,4.1c-0.9,0.1-1.8,0.1-2.7,0.1
		C120.8,169.7,105.7,169.7,90.5,169.7z"/>
	<path d="M90.5,132c15.7,0,31.3,0,47,0c4.4,0,6.9,3.3,5.6,7c-0.6,1.9-1.9,3.1-3.9,3.5c-1.1,0.2-2.3,0.3-3.5,0.3c-30.3,0-60.6,0-91,0
		c-1,0-2,0-3-0.1c-2.7-0.4-4.6-2.7-4.6-5.4c0-2.7,2-4.9,4.8-5.2c0.8-0.1,1.7,0,2.5,0C59.8,132,75.2,132,90.5,132z"/>
	<path d="M125.7,115.7c-3.8,0-7.7,0-11.5,0c-3.8,0-6.1-2.1-6.1-5.4c0-3.2,2.4-5.4,6.1-5.4c7.7,0,15.5,0,23.2,0c3.6,0,6.1,2.4,6,5.6
		c-0.1,3.2-2.4,5.2-6,5.3C133.5,115.7,129.6,115.7,125.7,115.7z"/>
	<path class="st1" d="M65.7,104.9c-5.2,0-10.5-0.1-15.7,0c-1.7,0-2.1-0.5-2.1-2.1c0.1-2.6,0-5.2,0-7.7c0.1-5.4,4-9.5,9.4-9.6
		c5.7-0.1,11.3-0.1,17,0c4.8,0.1,8.5,3.5,9.2,8.2c0.5,3.3,0.1,6.6,0.2,10c0,1.5-1,1.2-1.9,1.3C76.5,105,71.1,104.9,65.7,104.9z"/>
	<path class="st1" d="M65.6,52.1c4.5,0,8.2,3.5,8.2,7.9c0,4.4-3.5,8-7.8,8c-4.2,0-7.9-3.6-8-7.9C57.8,55.8,61.4,52.1,65.6,52.1z"/>
</g>
</svg>
